<svg width="20" height="20" viewBox="0 0 20 20" fill="none" xmlns="http://www.w3.org/2000/svg">
<path d="M19.549 5.19232C19.4344 4.76858 19.2107 4.38227 18.9003 4.07186C18.5899 3.76145 18.2036 3.53776 17.7799 3.42308C16.2286 3 9.98512 3 9.98512 3C9.98512 3 3.74137 3.01281 2.19007 3.43589C1.76633 3.55057 1.38002 3.77427 1.06962 4.0847C0.759221 4.39512 0.535559 4.78145 0.420909 5.2052C-0.0483214 7.96155 -0.230344 12.1616 0.433794 14.8077C0.548456 15.2314 0.772122 15.6177 1.08252 15.9281C1.39292 16.2386 1.77922 16.4622 2.20295 16.5769C3.75425 17 9.99785 17 9.99785 17C9.99785 17 16.2414 17 17.7926 16.5769C18.2163 16.4622 18.6027 16.2386 18.9131 15.9282C19.2235 15.6177 19.4472 15.2314 19.5618 14.8077C20.0567 12.0474 20.2093 7.84997 19.549 5.19232Z" fill="#FF0000"/>
<path d="M7.99777 13L13.1772 9.99998L7.99777 7V13Z" fill="white"/>
</svg>
