<svg width="20" height="20" viewBox="0 0 20 20" fill="none" xmlns="http://www.w3.org/2000/svg">
<circle cx="9.5" cy="9.5" r="9.5" fill="white"/>
<path d="M19 9.55806C19 4.27932 14.7467 0 9.5 0C4.25333 0 0 4.27925 0 9.55806C0 14.3287 3.5 18.5 8.01562 18.8818V12.3209H5.60352V9.55806H8.01562V7.4523C8.01562 5.05681 9.43395 3.73362 11.6039 3.73362C12.6433 3.73362 13.7305 3.9203 13.7305 3.9203V6.27248H12.5326C11.3524 6.27248 10.9844 7.00927 10.9844 7.76517V9.55806H13.6191L13.1979 12.3209H10.9844V18.8984C15.526 18.1814 19 14.3288 19 9.55806Z" fill="#1877F2"/>
</svg>
